<?xml version="1.0" encoding="UTF-8" standalone="no"?>
<!-- Created with Inkscape (http://www.inkscape.org/) -->
<svg
   xmlns:dc="http://purl.org/dc/elements/1.1/"
   xmlns:cc="http://creativecommons.org/ns#"
   xmlns:rdf="http://www.w3.org/1999/02/22-rdf-syntax-ns#"
   xmlns:svg="http://www.w3.org/2000/svg"
   xmlns="http://www.w3.org/2000/svg"
   xmlns:xlink="http://www.w3.org/1999/xlink"
   xmlns:sodipodi="http://sodipodi.sourceforge.net/DTD/sodipodi-0.dtd"
   xmlns:inkscape="http://www.inkscape.org/namespaces/inkscape"
   width="32"
   height="32"
   id="svg1306"
   sodipodi:version="0.32"
   inkscape:version="0.45+devel"
   sodipodi:docbase="/home/andrew/pixmaps"
   sodipodi:docname="plugin-dbus.svg"
   inkscape:output_extension="org.inkscape.output.svg.inkscape"
   version="1.0">
  <defs
     id="defs1308">
    <linearGradient
       inkscape:collect="always"
       id="linearGradient2189">
      <stop
         style="stop-color:#000000;stop-opacity:1;"
         offset="0"
         id="stop2191" />
      <stop
         style="stop-color:#000000;stop-opacity:0;"
         offset="1"
         id="stop2193" />
    </linearGradient>
    <linearGradient
       inkscape:collect="always"
       id="linearGradient2097">
      <stop
         style="stop-color:#ffffff;stop-opacity:1.0000000"
         offset="0"
         id="stop2099" />
      <stop
         style="stop-color:#e7e7e3;stop-opacity:1.0000000"
         offset="1"
         id="stop2101" />
    </linearGradient>
    <radialGradient
       inkscape:collect="always"
       xlink:href="#linearGradient2097"
       id="radialGradient2103"
       cx="16.981855"
       cy="15.445013"
       fx="16.981855"
       fy="15.445013"
       r="20.978409"
       gradientTransform="matrix(-1.1416254,3.1294063e-3,2.2783426e-3,0.7909064,40.103413,-3.1881964)"
       gradientUnits="userSpaceOnUse" />
    <radialGradient
       inkscape:collect="always"
       xlink:href="#linearGradient2189"
       id="radialGradient2195"
       cx="25.304846"
       cy="44.051216"
       fx="25.304846"
       fy="44.051216"
       r="21.535715"
       gradientTransform="matrix(0.928681,0,0,0.102029,1.804722,37.76401)"
       gradientUnits="userSpaceOnUse" />
  </defs>
  <sodipodi:namedview
     id="base"
     pagecolor="#ffffff"
     bordercolor="#666666"
     borderopacity="1.0"
     inkscape:pageopacity="0.0"
     inkscape:pageshadow="2"
     inkscape:zoom="1"
     inkscape:cx="21.845657"
     inkscape:cy="18.691559"
     inkscape:current-layer="layer1"
     showgrid="false"
     inkscape:grid-bbox="true"
     inkscape:document-units="px"
     fill="#3465a4"
     stroke="#888a85"
     inkscape:window-width="1280"
     inkscape:window-height="710"
     inkscape:window-x="0"
     inkscape:window-y="49"
     showguides="true"
     inkscape:guide-bbox="true"
     inkscape:showpageshadow="false"
     showborder="true">
    <inkscape:grid
       type="xygrid"
       id="grid7864"
       visible="true"
       enabled="true" />
  </sodipodi:namedview>
  <metadata
     id="metadata1311">
    <rdf:RDF>
      <cc:Work
         rdf:about="">
        <dc:format>image/svg+xml</dc:format>
        <dc:type
           rdf:resource="http://purl.org/dc/dcmitype/StillImage" />
        <dc:title>Konversation application icon</dc:title>
        <dc:date>March 2006</dc:date>
        <dc:creator>
          <cc:Agent>
            <dc:title>Andreas Nilsson</dc:title>
          </cc:Agent>
        </dc:creator>
        <dc:source>http://tango-project.org</dc:source>
        <dc:subject>
          <rdf:Bag>
            <rdf:li>konversation</rdf:li>
            <rdf:li>chat</rdf:li>
            <rdf:li>irc</rdf:li>
          </rdf:Bag>
        </dc:subject>
        <cc:license
           rdf:resource="http://creativecommons.org/licenses/GPL/2.0/" />
      </cc:Work>
      <cc:License
         rdf:about="http://creativecommons.org/licenses/GPL/2.0/">
        <cc:permits
           rdf:resource="http://web.resource.org/cc/Reproduction" />
        <cc:permits
           rdf:resource="http://web.resource.org/cc/Distribution" />
        <cc:requires
           rdf:resource="http://web.resource.org/cc/Notice" />
        <cc:permits
           rdf:resource="http://web.resource.org/cc/DerivativeWorks" />
        <cc:requires
           rdf:resource="http://web.resource.org/cc/ShareAlike" />
        <cc:requires
           rdf:resource="http://web.resource.org/cc/SourceCode" />
      </cc:License>
    </rdf:RDF>
  </metadata>
  <g
     id="layer1"
     inkscape:label="Layer 1"
     inkscape:groupmode="layer">
    <path
       style="opacity:1;fill:url(#radialGradient2103);fill-opacity:1;stroke:#888a85;stroke-width:0.95604843;stroke-linecap:round;stroke-linejoin:round;stroke-miterlimit:4;stroke-dasharray:none;stroke-dashoffset:0;stroke-opacity:1"
       d="M 15.976347,0.47824973 C 24.553797,0.47824973 31.587509,6.1137533 31.513202,13.046672 C 31.404932,23.254096 18.193769,26.925358 12.376344,25.222331 C 8.7763413,26.374217 7.8880819,27.829041 2.6098819,27.819138 C 5.668531,25.855322 5.6070315,24.657552 5.631845,22.535311 C 2.5045944,20.237183 0.43949321,16.729518 0.43949245,13.046672 C 0.43949245,6.1133748 7.398896,0.47824973 15.976347,0.47824973 z"
       id="path2079"
       sodipodi:nodetypes="cscccsc" />
    <path
       style="opacity:1;fill:none;fill-opacity:1;stroke:#ffffff;stroke-width:0.95625001;stroke-linecap:round;stroke-linejoin:miter;stroke-miterlimit:4;stroke-dasharray:none;stroke-dashoffset:0;stroke-opacity:1"
       d="M 15.967036,1.4011811 C 24.019857,1.4011811 30.623362,6.6641689 30.553601,13.138811 C 30.451952,22.671509 17.822594,25.880157 12.360984,24.289703 C 9.2576841,25.423206 7.5283739,26.373135 5.2663492,26.742054 C 6.5656389,25.580836 6.6640452,24.020933 6.5604306,22.122126 C 3.6244548,19.975909 1.3804739,16.578215 1.380473,13.138811 C 1.380473,6.6638155 7.9142134,1.4011811 15.967036,1.4011811 z"
       id="path2095"
       sodipodi:nodetypes="cscccsc" />
    <path
       id="path3243"
       d="M 11.201969,3.2924854 C 11.060618,3.302157 10.923229,3.3240499 10.784392,3.3399373 L 10.774901,3.3399373 L 10.442737,5.152603 C 9.9013365,5.2758989 9.3919883,5.4851444 8.9337641,5.7694786 L 7.4437723,4.6970643 C 7.0409882,5.0097734 6.6744583,5.3744793 6.3523769,5.7694786 L 7.38683,7.2784518 C 7.072741,7.7584427 6.8365483,8.3065198 6.7035215,8.882329 C 6.7034987,8.885051 6.7035028,8.8913454 6.7035215,8.8918192 L 4.900346,9.1765315 C 4.8673794,9.4457956 4.852894,9.7240703 4.852894,10.002196 C 4.852894,10.229753 4.8591774,10.45427 4.8813655,10.676014 L 6.6845409,10.998688 C 6.8127837,11.624869 7.0563997,12.209666 7.3963203,12.725939 L 6.3239054,14.196951 C 6.6310381,14.578242 6.9856192,14.925394 7.3678489,15.231405 L 8.8863122,14.187461 C 9.4169948,14.525992 10.009394,14.763376 10.651527,14.88026 L 10.936238,16.673945 C 11.138553,16.692361 11.346025,16.692926 11.553114,16.692926 C 11.845473,16.692926 12.124735,16.681847 12.407249,16.645474 L 12.748903,14.813827 C 13.358585,14.662103 13.931322,14.398895 14.428704,14.045105 L 15.890224,15.10803 C 16.269241,14.78557 16.61583,14.414925 16.915186,14.016634 L 15.852264,12.479189 C 16.140119,11.982048 16.339577,11.433533 16.440668,10.846841 L 18.234353,10.562129 C 18.250082,10.374949 18.253333,10.19342 18.253333,10.002196 C 18.253333,9.669891 18.214709,9.3440683 18.167919,9.0246847 L 16.345763,8.6925213 C 16.202968,8.1652427 15.968676,7.6732974 15.671946,7.231 L 16.74436,5.7599884 C 16.411946,5.353463 16.032755,4.9779249 15.615003,4.6591027 L 14.068069,5.7220268 C 13.623463,5.4590784 13.145006,5.257322 12.625528,5.1431127 L 12.340816,3.3399373 C 12.081675,3.3094542 11.820403,3.2924854 11.553114,3.2924854 C 11.480874,3.2924854 11.406526,3.2902123 11.334834,3.2924854 C 11.299885,3.2935937 11.265299,3.2904523 11.23044,3.2924854 C 11.221,3.2930365 11.211393,3.2918406 11.201969,3.2924854 z M 11.448719,7.9048185 C 11.48339,7.9030592 11.518007,7.9048185 11.553114,7.9048185 C 12.676511,7.9048185 13.593549,8.8218559 13.593549,9.9452536 C 13.593549,11.068651 12.676511,11.976199 11.553114,11.976199 C 10.429717,11.976199 9.522169,11.068651 9.522169,9.9452536 C 9.522169,8.8569624 10.373905,7.9593593 11.448719,7.9048185 z"
       style="fill:#2e3436;fill-opacity:1;fill-rule:nonzero;stroke:#888a85;stroke-width:0.50000000000000000;stroke-linecap:butt;stroke-linejoin:miter;marker:none;marker-start:none;marker-mid:none;marker-end:none;stroke-miterlimit:4;stroke-dasharray:none;stroke-dashoffset:0;stroke-opacity:1;visibility:visible;display:inline;overflow:visible" />
    <path
       sodipodi:type="arc"
       style="opacity:0.2;fill:url(#radialGradient2195);fill-opacity:1;stroke:none;stroke-width:1;stroke-linecap:round;stroke-linejoin:round;stroke-miterlimit:4;stroke-dasharray:none;stroke-dashoffset:0;stroke-opacity:1"
       id="path1314"
       sodipodi:cx="24.535715"
       sodipodi:cy="42"
       sodipodi:rx="21.535715"
       sodipodi:ry="2.7142856"
       d="M 46.07143,42 A 21.535715,2.7142856 0 1 1 3,42 A 21.535715,2.7142856 0 1 1 46.07143,42 z"
       transform="matrix(-0.6892888,0,0,0.9570692,34.051545,-10.879362)" />
    <path
       id="path1940"
       d="M 21.371612,12.583439 C 21.265279,12.563706 21.15955,12.553762 21.053892,12.539104 L 21.046877,12.537298 L 20.456591,13.814134 C 20.032912,13.802317 19.61658,13.860132 19.223761,13.98318 L 18.326236,12.907035 C 17.969008,13.061603 17.628688,13.261507 17.315469,13.492254 L 17.793214,14.804488 C 17.469736,15.099588 17.190898,15.459833 16.98305,15.860199 C 16.982515,15.862206 16.981322,15.86686 16.981245,15.867214 L 15.594099,15.734759 C 15.518519,15.927542 15.45489,16.130502 15.401994,16.336105 C 15.358717,16.504326 15.320664,16.671494 15.294895,16.839636 L 16.566527,17.421098 C 16.542245,17.908391 16.61112,18.387031 16.764222,18.833329 L 15.69168,19.716819 C 15.846214,20.057097 16.042316,20.381161 16.266683,20.68007 L 17.587747,20.197119 C 17.915673,20.548302 18.308457,20.836449 18.760927,21.044975 L 18.630276,22.425098 C 18.776334,22.477188 18.929602,22.517062 19.08269,22.556445 C 19.29882,22.612047 19.507371,22.656967 19.723137,22.683808 L 20.324049,21.394745 C 20.803612,21.398532 21.277066,21.312878 21.712039,21.145932 L 22.590322,22.209648 C 22.931838,22.043351 23.258543,21.835267 23.55559,21.597763 L 23.062214,20.259067 C 23.369559,19.946302 23.621326,19.578747 23.807634,19.16426 L 25.187765,19.294911 C 25.23499,19.159531 25.271917,19.025954 25.308283,18.884592 C 25.371482,18.638938 25.404893,18.390729 25.431045,18.145728 L 24.147184,17.55364 C 24.141902,17.136695 24.06226,16.728469 23.927018,16.345069 L 24.999559,15.461583 C 24.831137,15.09784 24.622237,14.748109 24.374047,14.432975 L 23.028328,14.924542 C 22.749661,14.645603 22.434331,14.405462 22.072026,14.222239 L 22.204481,12.835104 C 22.018708,12.763284 21.82879,12.701052 21.631196,12.650218 C 21.577793,12.636481 21.523262,12.620661 21.469833,12.608706 C 21.443785,12.60288 21.418815,12.59398 21.392659,12.588854 C 21.385575,12.587465 21.3787,12.584753 21.371612,12.583439 z M 20.676847,16.040016 C 20.702811,16.045309 20.728067,16.053194 20.754019,16.059869 C 21.584493,16.273517 22.088011,17.125834 21.874362,17.956304 C 21.660714,18.786772 20.810195,19.28327 19.979722,19.069621 C 19.149248,18.855976 18.650942,18.012477 18.864589,17.182011 C 19.071561,16.377494 19.871917,15.875926 20.676847,16.040016 z"
       style="fill:#2e3436;fill-opacity:1;fill-rule:nonzero;stroke:#888a85;stroke-width:0.50000000000000000;stroke-linecap:butt;stroke-linejoin:miter;marker:none;marker-start:none;marker-mid:none;marker-end:none;stroke-miterlimit:4;stroke-dasharray:none;stroke-dashoffset:0;stroke-opacity:1;visibility:visible;display:inline;overflow:visible" />
  </g>
</svg>
