<?xml version="1.0" encoding="UTF-8" standalone="no"?>
<!-- Created with Inkscape (http://www.inkscape.org/) -->
<svg
   xmlns:svg="http://www.w3.org/2000/svg"
   xmlns="http://www.w3.org/2000/svg"
   xmlns:xlink="http://www.w3.org/1999/xlink"
   version="1.0"
   width="32"
   height="32"
   id="svg11300">
  <defs
     id="defs3">
    <linearGradient
       id="linearGradient2781">
      <stop
         id="stop2783"
         style="stop-color:#d3d7cf;stop-opacity:1"
         offset="0" />
      <stop
         id="stop2785"
         style="stop-color:#eeeeec;stop-opacity:1"
         offset="1" />
    </linearGradient>
    <linearGradient
       id="linearGradient3674">
      <stop
         id="stop3676"
         style="stop-color:#3465a4;stop-opacity:1"
         offset="0" />
      <stop
         id="stop3678"
         style="stop-color:#729fcf;stop-opacity:1"
         offset="1" />
    </linearGradient>
    <linearGradient
       id="linearGradient3690">
      <stop
         id="stop3692"
         style="stop-color:#ffffff;stop-opacity:1"
         offset="0" />
      <stop
         id="stop3694"
         style="stop-color:#ffffff;stop-opacity:0.46875"
         offset="1" />
    </linearGradient>
    <linearGradient
       id="linearGradient3355">
      <stop
         id="stop3357"
         style="stop-color:#6f716c;stop-opacity:1"
         offset="0" />
      <stop
         id="stop3359"
         style="stop-color:#888a85;stop-opacity:0"
         offset="1" />
    </linearGradient>
    <linearGradient
       id="linearGradient3331">
      <stop
         id="stop3333"
         style="stop-color:#d3d7cf;stop-opacity:1"
         offset="0" />
      <stop
         id="stop3335"
         style="stop-color:#d3d7cf;stop-opacity:0"
         offset="1" />
    </linearGradient>
    <linearGradient
       id="linearGradient3315">
      <stop
         id="stop3317"
         style="stop-color:#ffffff;stop-opacity:1"
         offset="0" />
      <stop
         id="stop3319"
         style="stop-color:#ffffff;stop-opacity:0"
         offset="1" />
    </linearGradient>
    <linearGradient
       id="linearGradient3307">
      <stop
         id="stop3309"
         style="stop-color:#888a85;stop-opacity:1"
         offset="0" />
      <stop
         id="stop3311"
         style="stop-color:#888a85;stop-opacity:0"
         offset="1" />
    </linearGradient>
    <linearGradient
       x1="9.5"
       y1="16.26436"
       x2="9.5"
       y2="13.408723"
       id="linearGradient8050"
       xlink:href="#linearGradient3690"
       gradientUnits="userSpaceOnUse"
       gradientTransform="matrix(1.2605424,0,0,1.2058553,-7.4733935,-4.9459439)" />
    <linearGradient
       x1="16.440886"
       y1="3.9467564"
       x2="16.491102"
       y2="8.1244717"
       id="linearGradient8053"
       xlink:href="#linearGradient3674"
       gradientUnits="userSpaceOnUse"
       gradientTransform="matrix(1.2446306,0,0,1.2707947,-7.0741545,-5.3017619)" />
    <linearGradient
       x1="24.925514"
       y1="40.000107"
       x2="24.925514"
       y2="19.53867"
       id="linearGradient8056"
       xlink:href="#linearGradient2781"
       gradientUnits="userSpaceOnUse"
       gradientTransform="matrix(1.2446306,0,0,1.1767765,-7.0741545,-3.9826539)" />
    <linearGradient
       x1="35.197689"
       y1="46.093544"
       x2="33.665684"
       y2="50.415848"
       id="linearGradient8097"
       xlink:href="#linearGradient3331"
       gradientUnits="userSpaceOnUse" />
    <linearGradient
       x1="38.045502"
       y1="44.886215"
       x2="33.233128"
       y2="51.470303"
       id="linearGradient8099"
       xlink:href="#linearGradient3355"
       gradientUnits="userSpaceOnUse" />
    <linearGradient
       x1="36.201752"
       y1="37.667465"
       x2="30.034962"
       y2="41.842426"
       id="linearGradient8103"
       xlink:href="#linearGradient3307"
       gradientUnits="userSpaceOnUse" />
    <linearGradient
       x1="33.358002"
       y1="37.386215"
       x2="33.358002"
       y2="52.806263"
       id="linearGradient8112"
       xlink:href="#linearGradient3315"
       gradientUnits="userSpaceOnUse" />
  </defs>
  <g
     id="layer1">
    <g
       transform="translate(-11.172678,-40.076333)"
       id="g2721"
       style="display:inline" />
    <rect
       width="28.999998"
       height="26.191216"
       rx="1.9999999"
       ry="2"
       x="1.5000005"
       y="2.3087857"
       id="rect8032"
       style="fill:url(#linearGradient8056);fill-opacity:1;stroke:#888a85;stroke-width:1.00000024;stroke-miterlimit:4;stroke-opacity:1;stroke-dasharray:none" />
    <path
       d="M 1.4999995,6.6284771 L 1.4999995,3.3546751 C 1.4999995,2.3271861 2.2838775,1.5000011 3.2575735,1.5000011 L 28.74239,1.5000011 C 29.716085,1.5000011 30.499964,2.3271861 30.499964,3.3546751 L 30.499964,6.6284771"
       id="path8034"
       style="fill:url(#linearGradient8053);fill-opacity:1;stroke:#204a87;stroke-width:1.00000048;stroke-miterlimit:4;stroke-opacity:1" />
    <rect
       width="27.042036"
       height="25.076571"
       rx="1.5110157"
       ry="1.5110158"
       x="2.4871001"
       y="2.5019677"
       id="rect8036"
       style="opacity:0.8;fill:none;stroke:url(#linearGradient8050);stroke-width:1.00000095;stroke-miterlimit:4;stroke-opacity:1;stroke-dasharray:none" />
    <path
       d="M 16.045721,14.366794 C 15.553639,14.396314 15.08193,14.488765 14.611514,14.653634 L 18.029707,18.071805 L 16.930149,20.247004 L 14.754935,21.322653 L 11.336743,17.928385 C 10.667038,19.814674 11.094831,21.989067 12.603625,23.497852 C 14.11242,25.006638 16.286824,25.410524 18.173128,24.740824 L 22.005651,28.571118 L 28.24445,28.571118 C 28.323589,28.571118 28.406462,28.554657 28.483484,28.547215 L 21.423996,21.489976 C 22.083477,19.608324 21.660479,17.423865 20.157114,15.920508 C 19.029589,14.792992 17.521968,14.278237 16.045721,14.366794 z"
       id="path6270"
       style="opacity:0.2;fill:#000000;fill-opacity:1;fill-rule:nonzero;stroke:#000000;stroke-width:1.00000036;stroke-linecap:round;stroke-linejoin:round;stroke-miterlimit:4;stroke-opacity:1;stroke-dasharray:none;stroke-dashoffset:1.4;marker:none;marker-start:none;marker-mid:none;marker-end:none;visibility:visible;display:inline;overflow:visible" />
    <g
       transform="matrix(0.7649102,0,0,0.7649054,-52.98935,-6.2466385)"
       id="g3199">
      <path
         d="M 32.5,24.1875 C 30.13715,25.312159 28.5,27.710447 28.5,30.5 C 28.5,33.289555 30.137147,35.687838 32.5,36.8125 L 32.5,55.350096 L 38.53125,55.350096 L 38.53125,36.8125 C 40.880361,35.682677 42.5,33.279516 42.5,30.5 C 42.5,27.720486 40.880357,25.31732 38.53125,24.1875 L 38.53125,30.5 L 35.515625,31.5 L 32.5,30.5 L 32.5,24.1875 z"
         transform="matrix(0.707107,-0.707107,0.707107,0.707107,44.01958,36.46818)"
         id="path3193"
         style="opacity:1;fill:url(#linearGradient8097);fill-opacity:1;fill-rule:nonzero;stroke:url(#linearGradient8099);stroke-width:1.30734706;stroke-linecap:round;stroke-linejoin:round;stroke-miterlimit:4;stroke-opacity:1;stroke-dasharray:none;stroke-dashoffset:1.4;marker:none;marker-start:none;marker-mid:none;marker-end:none;visibility:visible;display:inline;overflow:visible" />
      <path
         d="M 31.176678,26.819809 C 30.589509,27.274553 29.802896,29.11798 29.802896,30.418291 C 29.802896,32.687333 31.145959,34.7323 33.063109,35.644818 C 33.527077,35.868528 33.853184,31.017279 33.792682,36.761432 C 33.807005,41.990799 33.84375,55.40625 33.84375,55.40625 L 37.1875,55.40625 L 37.228354,36.853354 C 37.222929,36.338298 37.493959,35.837887 37.957927,35.614177 C 39.859678,34.699515 41.094967,33.048895 41.207319,30.38765 C 41.261868,29.095548 40.521863,27.573255 39.854574,26.881091 L 39.875,30.5 C 39.870165,31.071109 39.480748,31.573727 38.9375,31.75 L 35.90625,32.75 C 35.634826,32.839843 35.365174,32.839843 35.09375,32.75 L 32.09375,31.75 C 31.550502,31.573727 31.181512,31.030254 31.176677,30.459145 L 31.176678,26.819809 z"
         transform="matrix(0.707107,-0.707107,0.707107,0.707107,44.01958,36.46818)"
         id="path8105"
         style="fill:none;stroke:url(#linearGradient8112);stroke-width:1.30734706;stroke-linecap:round;stroke-linejoin:miter;stroke-miterlimit:4;stroke-opacity:1;stroke-dashoffset:1.4;marker:none;marker-start:none;marker-mid:none;marker-end:none;visibility:visible;display:inline;overflow:visible" />
      <rect
         width="2.0000091"
         height="15.000015"
         rx="1.307353"
         ry="1.307353"
         x="34.500008"
         y="37.499985"
         transform="matrix(0.707107,-0.707107,0.707107,0.707107,44.01958,36.46818)"
         id="rect3197"
         style="opacity:0.4;fill:none;stroke:url(#linearGradient8103);stroke-width:1.30734682;stroke-linecap:round;stroke-linejoin:miter;stroke-miterlimit:4;stroke-opacity:1;stroke-dasharray:none;stroke-dashoffset:1.4;marker:none;marker-start:none;marker-mid:none;marker-end:none;visibility:visible;display:inline;overflow:visible" />
    </g>
  </g>
</svg>
