<?xml version="1.0" encoding="UTF-8" standalone="no"?>
<!-- Created with Inkscape (http://www.inkscape.org/) -->
<svg
   xmlns:dc="http://purl.org/dc/elements/1.1/"
   xmlns:cc="http://creativecommons.org/ns#"
   xmlns:rdf="http://www.w3.org/1999/02/22-rdf-syntax-ns#"
   xmlns:svg="http://www.w3.org/2000/svg"
   xmlns="http://www.w3.org/2000/svg"
   xmlns:xlink="http://www.w3.org/1999/xlink"
   xmlns:sodipodi="http://sodipodi.sourceforge.net/DTD/sodipodi-0.dtd"
   xmlns:inkscape="http://www.inkscape.org/namespaces/inkscape"
   inkscape:export-ydpi="90.000000"
   inkscape:export-xdpi="90.000000"
   inkscape:export-filename="/home/jimmac/Desktop/wi-fi.png"
   width="32"
   height="32"
   id="svg11300"
   sodipodi:version="0.32"
   inkscape:version="0.45+devel"
   sodipodi:docbase="/home/patrick/Projects/Fusion/config/ccsm-new-icons/images"
   sodipodi:docname="plugin-regex.svg"
   inkscape:output_extension="org.inkscape.output.svg.inkscape"
   sodipodi:modified="true"
   version="1.0">
  <defs
     id="defs3">
    <linearGradient
       id="linearGradient6146">
      <stop
         style="stop-color:#729fcf;stop-opacity:1"
         offset="0"
         id="stop6148" />
      <stop
         style="stop-color:#3465a4;stop-opacity:1"
         offset="1"
         id="stop6150" />
    </linearGradient>
    <linearGradient
       id="linearGradient47870">
      <stop
         id="stop47872"
         offset="0"
         style="stop-color:#000000;stop-opacity:0" />
      <stop
         id="stop47878"
         offset="0.5"
         style="stop-color:#000000;stop-opacity:1" />
      <stop
         id="stop47874"
         offset="1"
         style="stop-color:#000000;stop-opacity:0" />
    </linearGradient>
    <linearGradient
       id="linearGradient51765">
      <stop
         id="stop51767"
         offset="0"
         style="stop-color:#000000;stop-opacity:1" />
      <stop
         id="stop51769"
         offset="1"
         style="stop-color:#000000;stop-opacity:0" />
    </linearGradient>
    <linearGradient
       id="linearGradient2781">
      <stop
         id="stop2783"
         offset="0"
         style="stop-color:#d3d7cf;stop-opacity:1" />
      <stop
         id="stop2785"
         offset="1"
         style="stop-color:#eeeeec;stop-opacity:1" />
    </linearGradient>
    <linearGradient
       id="linearGradient3674">
      <stop
         id="stop3676"
         offset="0"
         style="stop-color:#3465a4;stop-opacity:1" />
      <stop
         id="stop3678"
         offset="1"
         style="stop-color:#729fcf;stop-opacity:1;" />
    </linearGradient>
    <linearGradient
       id="linearGradient3690">
      <stop
         id="stop3692"
         offset="0"
         style="stop-color:white;stop-opacity:1;" />
      <stop
         id="stop3694"
         offset="1"
         style="stop-color:white;stop-opacity:0.46875" />
    </linearGradient>
    <radialGradient
       inkscape:collect="always"
       xlink:href="#linearGradient6146"
       id="radialGradient3179"
       cx="-12.485723"
       cy="15.95436"
       fx="-12.485723"
       fy="15.95436"
       r="7.9043765"
       gradientTransform="matrix(-0.1671136,1.620716,-1.7453318,-0.1932771,38.078687,34.427646)"
       gradientUnits="userSpaceOnUse" />
    <linearGradient
       inkscape:collect="always"
       xlink:href="#linearGradient3690"
       id="linearGradient8015"
       gradientUnits="userSpaceOnUse"
       gradientTransform="matrix(1.2605424,0,0,1.2058553,-7.4733935,-4.9459439)"
       x1="9.5"
       y1="16.26436"
       x2="9.5"
       y2="13.408723" />
    <linearGradient
       inkscape:collect="always"
       xlink:href="#linearGradient3674"
       id="linearGradient8018"
       gradientUnits="userSpaceOnUse"
       gradientTransform="matrix(1.2446306,0,0,1.2707947,-7.0741545,-5.3017619)"
       x1="16.440886"
       y1="3.9467564"
       x2="16.491102"
       y2="8.1244717" />
    <linearGradient
       inkscape:collect="always"
       xlink:href="#linearGradient2781"
       id="linearGradient8021"
       gradientUnits="userSpaceOnUse"
       gradientTransform="matrix(1.2446306,0,0,1.1767765,-7.0741545,-3.9826539)"
       x1="24.925514"
       y1="40.000107"
       x2="24.925514"
       y2="19.53867" />
    <linearGradient
       inkscape:collect="always"
       xlink:href="#linearGradient47870"
       id="linearGradient8027"
       gradientUnits="userSpaceOnUse"
       gradientTransform="matrix(0.9788196,0,0,0.7154223,-8.5008021,52.112719)"
       x1="32.084972"
       y1="-14.402173"
       x2="32.084972"
       y2="-5.5633383" />
    <radialGradient
       inkscape:collect="always"
       xlink:href="#linearGradient51765"
       id="radialGradient8029"
       gradientUnits="userSpaceOnUse"
       gradientTransform="matrix(1.9576392,-8.146468e-7,6.6614241e-7,1.4565793,-59.017557,62.738067)"
       cx="51.4375"
       cy="-12.203125"
       fx="51.4375"
       fy="-12.203125"
       r="2.171875" />
    <radialGradient
       inkscape:collect="always"
       xlink:href="#linearGradient51765"
       id="radialGradient8031"
       gradientUnits="userSpaceOnUse"
       gradientTransform="matrix(-1.9576392,-9.2540676e-8,-1.2888861e-7,1.4565793,110.01781,62.73803)"
       cx="51.4375"
       cy="-12.203125"
       fx="51.4375"
       fy="-12.203125"
       r="2.171875" />
    <radialGradient
       r="2.171875"
       fy="-12.203125"
       fx="51.4375"
       cy="-12.203125"
       cx="51.4375"
       gradientTransform="matrix(-1.9576392,-9.2540676e-8,-1.2888861e-7,1.4565793,110.01781,62.73803)"
       gradientUnits="userSpaceOnUse"
       id="radialGradient8045"
       xlink:href="#linearGradient51765"
       inkscape:collect="always" />
    <radialGradient
       r="2.171875"
       fy="-12.203125"
       fx="51.4375"
       cy="-12.203125"
       cx="51.4375"
       gradientTransform="matrix(1.9576392,-8.146468e-7,6.6614241e-7,1.4565793,-59.017557,62.738067)"
       gradientUnits="userSpaceOnUse"
       id="radialGradient8043"
       xlink:href="#linearGradient51765"
       inkscape:collect="always" />
    <linearGradient
       y2="-5.5633383"
       x2="32.084972"
       y1="-14.402173"
       x1="32.084972"
       gradientTransform="matrix(0.9788196,0,0,0.7154223,-8.5008021,52.112719)"
       gradientUnits="userSpaceOnUse"
       id="linearGradient8041"
       xlink:href="#linearGradient47870"
       inkscape:collect="always" />
    <linearGradient
       y2="19.53867"
       x2="24.925514"
       y1="40.000107"
       x1="24.925514"
       gradientTransform="matrix(1.2446306,0,0,1.2223948,-7.0741535,-4.2265436)"
       gradientUnits="userSpaceOnUse"
       id="linearGradient8035"
       xlink:href="#linearGradient2781"
       inkscape:collect="always" />
    <linearGradient
       y2="8.1244717"
       x2="16.491102"
       y1="3.9467564"
       x1="16.440886"
       gradientTransform="matrix(1.2446306,0,0,1.3808054,-7.0741535,-5.8905786)"
       gradientUnits="userSpaceOnUse"
       id="linearGradient8032"
       xlink:href="#linearGradient3674"
       inkscape:collect="always" />
    <linearGradient
       y2="13.408723"
       x2="9.5"
       y1="16.26436"
       x1="9.5"
       gradientTransform="matrix(1.2605424,0,0,1.2497964,-7.4733925,-5.2173431)"
       gradientUnits="userSpaceOnUse"
       id="linearGradient8029"
       xlink:href="#linearGradient3690"
       inkscape:collect="always" />
  </defs>
  <sodipodi:namedview
     stroke="#ef2929"
     fill="#eeeeec"
     id="base"
     pagecolor="#ffffff"
     bordercolor="#666666"
     borderopacity="0.25490196"
     inkscape:pageopacity="0.0"
     inkscape:pageshadow="2"
     inkscape:zoom="16"
     inkscape:cx="19.195955"
     inkscape:cy="23.819576"
     inkscape:current-layer="layer1"
     showgrid="false"
     inkscape:grid-bbox="true"
     inkscape:document-units="px"
     inkscape:showpageshadow="false"
     inkscape:window-width="1280"
     inkscape:window-height="710"
     inkscape:window-x="0"
     inkscape:window-y="49"
     showguides="true"
     inkscape:guide-bbox="true"
     showborder="true">
    <inkscape:grid
       type="xygrid"
       id="grid8803"
       visible="true"
       enabled="true" />
  </sodipodi:namedview>
  <metadata
     id="metadata4">
    <rdf:RDF>
      <cc:Work
         rdf:about="">
        <dc:format>image/svg+xml</dc:format>
        <dc:type
           rdf:resource="http://purl.org/dc/dcmitype/StillImage" />
        <dc:creator>
          <cc:Agent>
            <dc:title>Patrick Niklaus</dc:title>
          </cc:Agent>
        </dc:creator>
        <dc:source />
        <cc:license
           rdf:resource="http://creativecommons.org/licenses/GPL/2.0/" />
        <dc:title>State</dc:title>
        <dc:subject>
          <rdf:Bag />
        </dc:subject>
      </cc:Work>
      <cc:License
         rdf:about="http://creativecommons.org/licenses/GPL/2.0/">
        <cc:permits
           rdf:resource="http://web.resource.org/cc/Reproduction" />
        <cc:permits
           rdf:resource="http://web.resource.org/cc/Distribution" />
        <cc:requires
           rdf:resource="http://web.resource.org/cc/Notice" />
        <cc:permits
           rdf:resource="http://web.resource.org/cc/DerivativeWorks" />
        <cc:requires
           rdf:resource="http://web.resource.org/cc/ShareAlike" />
        <cc:requires
           rdf:resource="http://web.resource.org/cc/SourceCode" />
      </cc:License>
    </rdf:RDF>
  </metadata>
  <g
     id="layer1"
     inkscape:label="Layer 1"
     inkscape:groupmode="layer">
    <g
       inkscape:label="Layer 1"
       id="g8026">
      <g
         id="g8007"
         transform="matrix(0.7831573,0,0,0.7895297,-3.9706075,-6.0021028)">
        <rect
           id="rect8009"
           style="opacity:0.3;fill:url(#linearGradient8041);fill-opacity:1;fill-rule:evenodd;stroke:none"
           y="41.809082"
           x="9.3215466"
           height="6.3234997"
           width="32.357079" />
        <path
           id="path8011"
           style="opacity:0.3;fill:url(#radialGradient8043);fill-opacity:1;fill-rule:evenodd;stroke:none"
           d="M 41.6785,41.799698 L 41.6785,48.126714 C 44.022298,48.102828 45.930248,46.705313 45.930248,44.974385 C 45.930248,43.243458 44.022299,41.823584 41.6785,41.799698 z" />
        <path
           id="path8013"
           style="opacity:0.3;fill:url(#radialGradient8045);fill-opacity:1;fill-rule:evenodd;stroke:none"
           d="M 9.3217476,41.799698 L 9.3217476,48.126714 C 6.9779494,48.102828 5.07,46.705313 5.07,44.974385 C 5.07,43.243458 6.9779484,41.823584 9.3217476,41.799698 z" />
      </g>
      <rect
         ry="2.0775311"
         rx="1.9999999"
         y="2.3087878"
         x="1.5000006"
         height="27.206532"
         width="28.999998"
         id="rect8015"
         style="fill:url(#linearGradient8035);fill-opacity:1;stroke:#888a85;stroke-width:1.00000024;stroke-miterlimit:4;stroke-opacity:1;stroke-dasharray:none" />
      <path
         sodipodi:nodetypes="cccccc"
         id="path8017"
         d="M 1.5000005,7.0724426 L 1.5000005,3.5152328 C 1.5000005,2.3987957 2.2838785,1.5000026 3.2575745,1.5000026 L 28.742391,1.5000026 C 29.716086,1.5000026 30.499965,2.3987957 30.499965,3.5152328 L 30.499965,7.0724426"
         style="fill:url(#linearGradient8032);fill-opacity:1;stroke:#204a87;stroke-width:1.00000048;stroke-miterlimit:4;stroke-opacity:1" />
      <rect
         ry="1.5660769"
         rx="1.5110157"
         y="2.5019701"
         x="2.4870994"
         height="25.990356"
         width="27.042036"
         id="rect8019"
         style="opacity:0.8;fill:none;stroke:url(#linearGradient8029);stroke-width:1.00000095;stroke-miterlimit:4;stroke-opacity:1;stroke-dasharray:none" />
    </g>
    <path
       style="font-size:28px;font-style:normal;font-weight:normal;fill:url(#radialGradient3179);fill-opacity:1;stroke:#204a87;stroke-width:0.99999994;stroke-linecap:butt;stroke-linejoin:miter;stroke-miterlimit:4;stroke-dasharray:none;stroke-opacity:1;font-family:Sans"
       d="M 14.507117,8.5241948 C 14.170298,8.6012667 13.930942,8.9113328 13.932322,9.2687927 L 13.932322,13.624687 L 9.765062,11.241976 C 9.5939751,11.141254 9.3909879,11.11607 9.2017926,11.172088 C 9.0125963,11.228108 8.8530894,11.360626 8.7591715,11.539814 L 7.5736581,13.848067 C 7.479106,14.029961 7.4601462,14.243926 7.5211539,14.440624 C 7.5821617,14.637322 7.7178693,14.799767 7.8969796,14.890502 L 11.884617,17.012604 L 7.8969796,19.171938 C 7.7178693,19.262672 7.5821617,19.425117 7.5211539,19.621815 C 7.4601462,19.818513 7.479106,20.03248 7.5736581,20.214374 L 8.7591715,22.522625 C 8.8530894,22.701814 9.0125963,22.834331 9.2017926,22.890351 C 9.3909879,22.94637 9.5939751,22.921186 9.765062,22.820464 L 13.932322,20.437752 L 13.932322,24.756417 C 13.939932,25.164335 14.257199,25.493128 14.650816,25.501015 L 17.345165,25.501015 C 17.738782,25.493128 18.056047,25.164335 18.063657,24.756417 L 18.063657,20.474982 L 22.194994,22.820464 C 22.366081,22.921186 22.569068,22.94637 22.758262,22.890351 C 22.947458,22.834331 23.106966,22.701814 23.200883,22.522625 L 24.422323,20.214374 C 24.516875,20.03248 24.535833,19.818513 24.474825,19.621815 C 24.413817,19.425117 24.27811,19.262672 24.099,19.171938 L 20.147288,17.012604 L 24.099,14.890502 C 24.27811,14.799767 24.413817,14.637322 24.474825,14.440624 C 24.535833,14.243926 24.516875,14.029961 24.422323,13.848067 L 23.200883,11.539814 C 23.106966,11.360626 22.947458,11.228108 22.758262,11.172088 C 22.569068,11.11607 22.366081,11.141254 22.194994,11.241976 L 18.063657,13.587458 L 18.063657,9.2687927 C 18.056047,8.8608747 17.738782,8.5320815 17.345165,8.5241948 L 14.650816,8.5241948 C 14.603032,8.5193162 14.554902,8.5193162 14.507117,8.5241948 z"
       id="path2199" />
    <path
       transform="matrix(0.9409022,0,0,0.9765438,0.5760136,-1.4043142)"
       style="font-size:28px;font-style:normal;font-weight:normal;fill:none;fill-opacity:1;stroke:#ffffff;stroke-width:1.04323423;stroke-linecap:butt;stroke-linejoin:miter;stroke-miterlimit:4;stroke-opacity:0.30128204;font-family:Sans"
       d="M 15.257955,11.1875 L 15.257955,15.40625 C 15.254401,15.747522 15.072187,16.17395 14.777852,16.346712 C 14.483518,16.519473 14.120156,16.525276 13.820455,16.362002 L 9.5,14.018252 L 8.5019628,15.874249 L 12.466787,17.920749 C 12.802096,18.083276 13.031644,18.487128 13.031644,18.85975 C 13.031644,19.232372 12.835309,19.588223 12.5,19.75075 L 8.4853564,21.876501 L 9.5146436,23.780499 L 13.733394,21.467999 C 14.033095,21.304725 14.479489,21.358529 14.773823,21.53129 C 15.068158,21.704052 15.266978,22.050479 15.270532,22.391751 L 15.270532,26.548001 L 17.510718,26.548001 L 17.510718,22.423001 C 17.514272,22.081729 17.729699,21.719302 18.024034,21.54654 C 18.318368,21.373779 18.764762,21.319975 19.064463,21.483249 L 23.251963,23.764499 L 24.3125,21.876501 L 20.3125,19.782751 C 19.977191,19.620224 19.76425,19.280373 19.76425,18.907751 C 19.76425,18.535129 19.977191,18.131277 20.3125,17.96875 L 24.3125,15.90625 L 23.235356,13.970251 L 19.047856,16.282751 C 18.748155,16.446025 18.318367,16.440222 18.024033,16.267461 C 17.729698,16.094699 17.530878,15.716272 17.527324,15.375 L 17.527324,11.1875 L 15.257955,11.1875 z"
       id="path4152"
       sodipodi:nodetypes="ccsccccsccccsccccsccccsccccsccc" />
  </g>
</svg>
