<?xml version="1.0" encoding="UTF-8" standalone="no"?>
<!-- Created with Inkscape (http://www.inkscape.org/) -->
<svg
   xmlns:dc="http://purl.org/dc/elements/1.1/"
   xmlns:cc="http://creativecommons.org/ns#"
   xmlns:rdf="http://www.w3.org/1999/02/22-rdf-syntax-ns#"
   xmlns:svg="http://www.w3.org/2000/svg"
   xmlns="http://www.w3.org/2000/svg"
   xmlns:xlink="http://www.w3.org/1999/xlink"
   xmlns:sodipodi="http://sodipodi.sourceforge.net/DTD/sodipodi-0.dtd"
   xmlns:inkscape="http://www.inkscape.org/namespaces/inkscape"
   inkscape:export-ydpi="90.000000"
   inkscape:export-xdpi="90.000000"
   inkscape:export-filename="/home/patrick/Desktop/desktop.png"
   width="32"
   height="32"
   id="svg11300"
   sodipodi:version="0.32"
   inkscape:version="0.45+devel"
   sodipodi:docbase="/home/patrick/Projects/Fusion/config/ccsm/images"
   sodipodi:docname="plugin-fs.svg"
   inkscape:output_extension="org.inkscape.output.svg.inkscape"
   version="1.0">
  <defs
     id="defs3">
    <linearGradient
       id="linearGradient6969">
      <stop
         style="stop-color:#78a1d5;stop-opacity:1;"
         offset="0"
         id="stop6971" />
      <stop
         style="stop-color:#3465a4;stop-opacity:1;"
         offset="1"
         id="stop6973" />
    </linearGradient>
    <linearGradient
       id="linearGradient5810">
      <stop
         style="stop-color:#d4d4d4;stop-opacity:1;"
         offset="0"
         id="stop5812" />
      <stop
         style="stop-color:#999999;stop-opacity:1;"
         offset="1"
         id="stop5814" />
    </linearGradient>
    <linearGradient
       id="linearGradient8440">
      <stop
         style="stop-color:#edeeec;stop-opacity:1;"
         offset="0"
         id="stop8442" />
      <stop
         style="stop-color:#babdb6;stop-opacity:1;"
         offset="1"
         id="stop8444" />
    </linearGradient>
    <linearGradient
       id="linearGradient51765">
      <stop
         style="stop-color:#000000;stop-opacity:1"
         offset="0"
         id="stop51767" />
      <stop
         style="stop-color:#000000;stop-opacity:0"
         offset="1"
         id="stop51769" />
    </linearGradient>
    <linearGradient
       id="linearGradient47870">
      <stop
         style="stop-color:#000000;stop-opacity:0"
         offset="0"
         id="stop47872" />
      <stop
         style="stop-color:#000000;stop-opacity:1"
         offset="0.5"
         id="stop47878" />
      <stop
         style="stop-color:#000000;stop-opacity:0"
         offset="1"
         id="stop47874" />
    </linearGradient>
    <linearGradient
       inkscape:collect="always"
       xlink:href="#linearGradient47870"
       id="linearGradient9129"
       gradientUnits="userSpaceOnUse"
       gradientTransform="matrix(0.982794,0,0,0.9842658,-9.9809772,53.029792)"
       x1="32.084972"
       y1="-14.402173"
       x2="32.084972"
       y2="-5.5633383" />
    <radialGradient
       inkscape:collect="always"
       xlink:href="#linearGradient51765"
       id="radialGradient9131"
       gradientUnits="userSpaceOnUse"
       gradientTransform="matrix(1.965588,-1.1207771e-6,6.6884721e-7,2.0039369,-60.70285,67.647964)"
       cx="51.4375"
       cy="-12.203125"
       fx="51.4375"
       fy="-12.203125"
       r="2.171875" />
    <radialGradient
       inkscape:collect="always"
       xlink:href="#linearGradient51765"
       id="radialGradient9133"
       gradientUnits="userSpaceOnUse"
       gradientTransform="matrix(-1.965588,-1.2731588e-7,-1.2941195e-7,2.0039369,109.01887,67.647913)"
       cx="51.4375"
       cy="-12.203125"
       fx="51.4375"
       fy="-12.203125"
       r="2.171875" />
    <radialGradient
       inkscape:collect="always"
       xlink:href="#linearGradient6969"
       id="radialGradient9137"
       gradientUnits="userSpaceOnUse"
       gradientTransform="matrix(-1.0439043e-3,0.6837264,-0.9535732,-1.9153496e-3,14.772876,5.5369641)"
       cx="13.498538"
       cy="5.2052503"
       fx="13.498538"
       fy="5.2052503"
       r="22.562502" />
    <radialGradient
       inkscape:collect="always"
       xlink:href="#linearGradient5810"
       id="radialGradient9141"
       gradientUnits="userSpaceOnUse"
       gradientTransform="matrix(0.1309105,1.7437897,-1.7603106,0.1245948,16.741839,2.4939556)"
       cx="3.3189297"
       cy="8.3332911"
       fx="3.3189297"
       fy="8.3332911"
       r="18.265774" />
    <radialGradient
       inkscape:collect="always"
       xlink:href="#linearGradient8440"
       id="radialGradient9536"
       gradientUnits="userSpaceOnUse"
       gradientTransform="matrix(0.5995759,0.2750639,-0.359289,0.7831675,-16.471458,-33.846293)"
       cx="56.704376"
       cy="10.241054"
       fx="56.704376"
       fy="10.241054"
       r="14.75" />
    <linearGradient
       id="linearGradient3307"
       inkscape:collect="always">
      <stop
         id="stop3309"
         offset="0"
         style="stop-color:#888a85;stop-opacity:1;" />
      <stop
         id="stop3311"
         offset="1"
         style="stop-color:#888a85;stop-opacity:0;" />
    </linearGradient>
    <linearGradient
       id="linearGradient3315"
       inkscape:collect="always">
      <stop
         id="stop3317"
         offset="0"
         style="stop-color:white;stop-opacity:1;" />
      <stop
         id="stop3319"
         offset="1"
         style="stop-color:white;stop-opacity:0;" />
    </linearGradient>
    <linearGradient
       id="linearGradient3331"
       inkscape:collect="always">
      <stop
         id="stop3333"
         offset="0"
         style="stop-color:#d3d7cf;stop-opacity:1;" />
      <stop
         id="stop3335"
         offset="1"
         style="stop-color:#d3d7cf;stop-opacity:0;" />
    </linearGradient>
    <linearGradient
       id="linearGradient3355">
      <stop
         style="stop-color:#6f716c;stop-opacity:1;"
         offset="0"
         id="stop3357" />
      <stop
         style="stop-color:#888a85;stop-opacity:0;"
         offset="1"
         id="stop3359" />
    </linearGradient>
    <linearGradient
       inkscape:collect="always"
       xlink:href="#linearGradient3331"
       id="linearGradient2427"
       gradientUnits="userSpaceOnUse"
       x1="35.197689"
       y1="46.093544"
       x2="33.665684"
       y2="50.415848" />
    <linearGradient
       inkscape:collect="always"
       xlink:href="#linearGradient3355"
       id="linearGradient2429"
       gradientUnits="userSpaceOnUse"
       x1="38.045502"
       y1="44.886215"
       x2="33.233128"
       y2="51.470303" />
    <linearGradient
       inkscape:collect="always"
       xlink:href="#linearGradient3315"
       id="linearGradient2431"
       gradientUnits="userSpaceOnUse"
       x1="33.358002"
       y1="37.386215"
       x2="33.358002"
       y2="52.806263" />
    <linearGradient
       inkscape:collect="always"
       xlink:href="#linearGradient3307"
       id="linearGradient2433"
       gradientUnits="userSpaceOnUse"
       x1="36.201752"
       y1="37.667465"
       x2="30.034962"
       y2="41.842426" />
    <radialGradient
       inkscape:collect="always"
       xlink:href="#linearGradient8440"
       id="radialGradient7951"
       gradientUnits="userSpaceOnUse"
       gradientTransform="matrix(0.4725464,0.2165754,-0.283168,0.6166381,-19.248574,-10.751249)"
       cx="56.704376"
       cy="10.241054"
       fx="56.704376"
       fy="10.241054"
       r="14.75" />
    <linearGradient
       gradientUnits="userSpaceOnUse"
       xlink:href="#linearGradient3315"
       id="linearGradient8112"
       y2="52.806263"
       x2="33.358002"
       y1="37.386215"
       x1="33.358002" />
    <linearGradient
       gradientUnits="userSpaceOnUse"
       xlink:href="#linearGradient3307"
       id="linearGradient8103"
       y2="41.842426"
       x2="30.034962"
       y1="37.667465"
       x1="36.201752" />
    <linearGradient
       gradientUnits="userSpaceOnUse"
       xlink:href="#linearGradient3355"
       id="linearGradient8099"
       y2="51.470303"
       x2="33.233128"
       y1="44.886215"
       x1="38.045502" />
    <linearGradient
       gradientUnits="userSpaceOnUse"
       xlink:href="#linearGradient3331"
       id="linearGradient8097"
       y2="50.415848"
       x2="33.665684"
       y1="46.093544"
       x1="35.197689" />
    <linearGradient
       gradientTransform="matrix(1.2446306,0,0,1.1767765,-7.0741545,-3.9826539)"
       gradientUnits="userSpaceOnUse"
       xlink:href="#linearGradient2781"
       id="linearGradient8056"
       y2="19.53867"
       x2="24.925514"
       y1="40.000107"
       x1="24.925514" />
    <linearGradient
       gradientTransform="matrix(1.2446306,0,0,1.2707947,-7.0741545,-5.3017619)"
       gradientUnits="userSpaceOnUse"
       xlink:href="#linearGradient3674"
       id="linearGradient8053"
       y2="8.1244717"
       x2="16.491102"
       y1="3.9467564"
       x1="16.440886" />
    <linearGradient
       gradientTransform="matrix(1.2605424,0,0,1.2058553,-7.4733935,-4.9459439)"
       gradientUnits="userSpaceOnUse"
       xlink:href="#linearGradient3690"
       id="linearGradient8050"
       y2="13.408723"
       x2="9.5"
       y1="16.26436"
       x1="9.5" />
    <linearGradient
       id="linearGradient3690">
      <stop
         offset="0"
         style="stop-color:#ffffff;stop-opacity:1"
         id="stop3692" />
      <stop
         offset="1"
         style="stop-color:#ffffff;stop-opacity:0.46875"
         id="stop3694" />
    </linearGradient>
    <linearGradient
       id="linearGradient3674">
      <stop
         offset="0"
         style="stop-color:#3465a4;stop-opacity:1"
         id="stop3676" />
      <stop
         offset="1"
         style="stop-color:#729fcf;stop-opacity:1"
         id="stop3678" />
    </linearGradient>
    <linearGradient
       id="linearGradient2781">
      <stop
         offset="0"
         style="stop-color:#d3d7cf;stop-opacity:1"
         id="stop2783" />
      <stop
         offset="1"
         style="stop-color:#eeeeec;stop-opacity:1"
         id="stop2785" />
    </linearGradient>
    <linearGradient
       inkscape:collect="always"
       xlink:href="#linearGradient3690"
       id="linearGradient8827"
       gradientUnits="userSpaceOnUse"
       gradientTransform="matrix(1.2605424,0,0,1.2058553,17.766111,-13.857193)"
       x1="9.5"
       y1="16.26436"
       x2="9.5"
       y2="13.408723" />
    <linearGradient
       inkscape:collect="always"
       xlink:href="#linearGradient3674"
       id="linearGradient8830"
       gradientUnits="userSpaceOnUse"
       gradientTransform="matrix(1.2446306,0,0,1.2707947,18.165351,-14.213011)"
       x1="16.440886"
       y1="3.9467564"
       x2="16.491102"
       y2="8.1244717" />
    <linearGradient
       inkscape:collect="always"
       xlink:href="#linearGradient2781"
       id="linearGradient8833"
       gradientUnits="userSpaceOnUse"
       gradientTransform="matrix(1.2446306,0,0,1.1767765,18.165351,-12.893903)"
       x1="24.925514"
       y1="40.000107"
       x2="24.925514"
       y2="19.53867" />
    <linearGradient
       inkscape:collect="always"
       xlink:href="#linearGradient3331"
       id="linearGradient8836"
       gradientUnits="userSpaceOnUse"
       x1="35.197689"
       y1="46.093544"
       x2="33.665684"
       y2="50.415848" />
    <linearGradient
       inkscape:collect="always"
       xlink:href="#linearGradient3355"
       id="linearGradient8838"
       gradientUnits="userSpaceOnUse"
       x1="38.045502"
       y1="44.886215"
       x2="33.233128"
       y2="51.470303" />
    <linearGradient
       inkscape:collect="always"
       xlink:href="#linearGradient3315"
       id="linearGradient8840"
       gradientUnits="userSpaceOnUse"
       x1="33.358002"
       y1="37.386215"
       x2="33.358002"
       y2="52.806263" />
    <linearGradient
       inkscape:collect="always"
       xlink:href="#linearGradient3307"
       id="linearGradient8842"
       gradientUnits="userSpaceOnUse"
       x1="36.201752"
       y1="37.667465"
       x2="30.034962"
       y2="41.842426" />
  </defs>
  <sodipodi:namedview
     stroke="#ef2929"
     fill="#eeeeec"
     id="base"
     pagecolor="#ffffff"
     bordercolor="#666666"
     borderopacity="0.25490196"
     inkscape:pageopacity="0.0"
     inkscape:pageshadow="2"
     inkscape:zoom="11.313708"
     inkscape:cx="21.440605"
     inkscape:cy="14.388916"
     inkscape:current-layer="layer1"
     showgrid="false"
     inkscape:grid-bbox="true"
     inkscape:document-units="px"
     inkscape:showpageshadow="false"
     inkscape:window-width="906"
     inkscape:window-height="662"
     inkscape:window-x="161"
     inkscape:window-y="75"
     showguides="true"
     inkscape:guide-bbox="true">
    <inkscape:grid
       type="xygrid"
       id="grid7947"
       empspacing="5"
       visible="true"
       enabled="true" />
  </sodipodi:namedview>
  <metadata
     id="metadata4">
    <rdf:RDF>
      <cc:Work
         rdf:about="">
        <dc:format>image/svg+xml</dc:format>
        <dc:type
           rdf:resource="http://purl.org/dc/dcmitype/StillImage" />
        <dc:creator>
          <cc:Agent>
            <dc:title />
          </cc:Agent>
        </dc:creator>
        <dc:source />
        <cc:license
           rdf:resource="http://creativecommons.org/licenses/GPL/2.0/" />
        <dc:title>Desktop</dc:title>
        <dc:subject>
          <rdf:Bag />
        </dc:subject>
      </cc:Work>
      <cc:License
         rdf:about="http://creativecommons.org/licenses/GPL/2.0/">
        <cc:permits
           rdf:resource="http://web.resource.org/cc/Reproduction" />
        <cc:permits
           rdf:resource="http://web.resource.org/cc/Distribution" />
        <cc:requires
           rdf:resource="http://web.resource.org/cc/Notice" />
        <cc:permits
           rdf:resource="http://web.resource.org/cc/DerivativeWorks" />
        <cc:requires
           rdf:resource="http://web.resource.org/cc/ShareAlike" />
        <cc:requires
           rdf:resource="http://web.resource.org/cc/SourceCode" />
      </cc:License>
    </rdf:RDF>
  </metadata>
  <g
     id="layer1"
     inkscape:label="Layer 1"
     inkscape:groupmode="layer">
    <g
       id="g7423"
       transform="matrix(0.7053427,0,0,0.4591013,-2.5709232,10.167903)">
      <rect
         width="32.488461"
         height="8.6997623"
         x="7.9137373"
         y="38.854225"
         style="opacity:0.4;fill:url(#linearGradient9129);fill-opacity:1;fill-rule:evenodd;stroke:none"
         id="rect2402" />
      <path
         d="M 40.402073,38.841314 L 40.402073,47.545914 C 42.755388,47.513052 44.671085,45.590375 44.671085,43.208994 C 44.671085,40.827614 42.755389,38.874176 40.402073,38.841314 z"
         style="opacity:0.4;fill:url(#radialGradient9131);fill-opacity:1;fill-rule:evenodd;stroke:none"
         id="path2404" />
      <path
         d="M 7.9139392,38.841314 L 7.9139392,47.545914 C 5.5606243,47.513052 3.6449278,45.590375 3.6449278,43.208994 C 3.6449278,40.827614 5.5606233,38.874176 7.9139392,38.841314 z"
         style="opacity:0.4;fill:url(#radialGradient9133);fill-opacity:1;fill-rule:evenodd;stroke:none"
         id="path2406" />
    </g>
    <path
       style="fill:url(#radialGradient9141);fill-opacity:1;fill-rule:evenodd;stroke:#888a85;stroke-width:1;stroke-linecap:round;stroke-linejoin:round;stroke-miterlimit:4;stroke-opacity:1;stroke-dashoffset:0"
       d="M 3.6573394,8.5417073 L 24.440086,8.5417073 C 25.577236,8.5417073 26.492703,9.4306174 26.492703,10.534779 C 26.486517,17.080843 26.501214,23.626962 26.491903,30.173011 C 26.502102,30.196162 9.8298313,30.157159 1.4999999,30.171855 L 1.6047227,10.534779 C 1.6047227,9.4306174 2.5201898,8.5417073 3.6573394,8.5417073 z"
       id="rect5037"
       sodipodi:nodetypes="ccccccc" />
    <path
       sodipodi:type="inkscape:offset"
       inkscape:radius="-1.0113667"
       inkscape:original="M 5 9 C 3.338 9 2 10.338 2 12 L 1.84375 41.5625 C 14.018208 41.540379 38.389904 41.597346 38.375 41.5625 C 38.388609 31.709297 38.365959 21.853225 38.375 12 C 38.375 10.338 37.037 9 35.375 9 L 5 9 z "
       style="fill:none;stroke:#d6d6d5;stroke-width:1.51488066;stroke-linecap:round;stroke-linejoin:round;stroke-miterlimit:4;stroke-opacity:1;stroke-dashoffset:0"
       id="path8507"
       d="M 5,10 C 3.8808033,10 3,10.880803 3,12 L 2.84375,40.5625 C 8.9138621,40.553536 17.407904,40.555691 24.6875,40.5625 C 28.493927,40.56606 31.90285,40.562405 34.375,40.5625 C 35.611075,40.562547 36.625613,40.564315 37.3125,40.5625 C 37.339975,40.562427 37.348521,40.562576 37.375,40.5625 C 37.385851,31.044662 37.366263,21.522019 37.375,12 C 37.375,10.880803 36.494197,10 35.375,10 L 5,10 z"
       transform="matrix(0.6667794,0,0,0.653523,0.5867854,2.9910498)" />
    <path
       style="fill:url(#radialGradient7951);fill-opacity:1;fill-rule:evenodd;stroke:#888a85;stroke-width:0.99999994;stroke-linecap:butt;stroke-linejoin:miter;stroke-miterlimit:4;stroke-opacity:1;stroke-dasharray:none;stroke-dashoffset:0"
       d="M 4.4332001,2.0996627 C 4.2493488,2.1869625 4.1795618,2.3973337 4.2640263,2.574867 L 5.5080387,5.1896115 C 5.1438419,5.5047792 4.8305861,5.8721964 4.5475623,6.2496077 L 1.9904464,5.4197706 C 1.8033922,5.358797 1.6074232,5.4615246 1.5442779,5.6548571 L 0.62500429,8.4141536 C 0.56185975,8.6074846 0.68228182,8.8178593 0.86933495,8.8788335 L 3.2305867,9.6390788 C 3.1773444,10.205692 3.1859618,10.783349 3.2808035,11.357325 L 0.75833229,12.555092 C 0.58062534,12.639474 0.50177346,12.846624 0.5891587,13.030297 L 1.8511997,15.682936 C 1.9385848,15.866608 2.1491624,15.936325 2.3268687,15.851943 L 4.830374,14.663182 C 5.1834725,15.065978 5.5914107,15.398703 6.0213585,15.700382 L 5.1120366,18.431724 C 5.0470905,18.624459 5.1419108,18.823748 5.3283866,18.886462 L 8.0714155,19.813845 C 8.2578912,19.876558 8.4526377,19.771493 8.517583,19.578758 L 9.4349832,16.913263 C 9.9911917,16.951012 10.55748,16.938037 11.117915,16.834207 L 12.32587,19.373162 C 12.410335,19.550695 12.617686,19.629469 12.801539,19.542169 L 15.456772,18.28136 C 15.640623,18.19406 15.71041,17.983691 15.625945,17.806158 L 14.399963,15.229308 C 14.775169,14.890227 15.087291,14.499954 15.371327,14.094457 L 17.936522,14.990142 C 18.122196,15.055181 18.343315,14.956907 18.41067,14.764998 L 19.37689,12.006638 C 19.444245,11.81473 19.346216,11.616939 19.16054,11.551899 L 16.586331,10.637267 C 16.613204,10.151386 16.593932,9.6525769 16.512464,9.1625302 L 18.997005,7.9827734 C 19.174711,7.8983916 19.253563,7.6912409 19.166178,7.5075692 L 17.904137,4.8549304 C 17.816753,4.6712588 17.606175,4.6015401 17.428469,4.685922 L 14.962895,5.8566728 C 14.58801,5.4261609 14.168582,5.0511384 13.707872,4.7337418 L 14.774188,2.1369027 C 14.851599,1.948818 14.777746,1.7389042 14.59577,1.6641527 L 11.903436,0.55010562 C 11.721459,0.47535395 11.525663,0.5781585 11.448253,0.76624405 L 10.333115,3.455948 C 10.319717,3.4885008 10.316322,3.5256243 10.312275,3.5587549 C 9.8165513,3.5265195 9.3077176,3.5409644 8.8081145,3.6226078 L 7.5641021,1.0078634 C 7.4796378,0.83033011 7.2722867,0.7515551 7.0884332,0.8388557 L 4.4332001,2.0996627 z M 8.7878405,7.9293941 C 10.270151,7.2255361 11.768401,7.8410723 12.362209,9.0891767 C 12.956015,10.337284 12.487738,11.886601 11.005428,12.59046 C 9.5231156,13.294319 8.0248692,12.678782 7.4310604,11.430678 C 6.8372517,10.182575 7.3055302,8.6332531 8.7878405,7.9293941 z"
       id="path2591" />
    <path
       sodipodi:type="inkscape:offset"
       inkscape:radius="-0.34702626"
       inkscape:original="M 60.84375 3.53125 C 60.841746 3.5415703 60.841746 3.5521797 60.84375 3.5625 C 60.83343 3.5604959 60.82282 3.5604959 60.8125 3.5625 C 60.810496 3.5728203 60.810496 3.5834297 60.8125 3.59375 C 60.799419 3.6011089 60.788609 3.6119186 60.78125 3.625 L 60.78125 7.15625 C 60.776577 7.7057634 60.402627 8.1922807 59.875 8.34375 C 59.307035 8.5010257 58.761996 8.7603892 58.1875 9.0625 C 57.720796 9.3067102 57.134484 9.2311717 56.75 8.875 L 54.4375 6.65625 C 54.42718 6.6542459 54.41657 6.6542459 54.40625 6.65625 C 54.398891 6.6431686 54.388081 6.6323589 54.375 6.625 C 54.361919 6.6323589 54.351109 6.6431686 54.34375 6.65625 C 54.33343 6.6542459 54.32282 6.6542459 54.3125 6.65625 L 52.375 8.65625 C 52.372996 8.6665703 52.372996 8.6771797 52.375 8.6875 C 52.361919 8.6948589 52.351109 8.7056686 52.34375 8.71875 C 52.351109 8.7318314 52.361919 8.7426411 52.375 8.75 C 52.372996 8.7603203 52.372996 8.7709297 52.375 8.78125 L 54.5 10.78125 C 54.91764 11.170897 55.029136 11.813548 54.75 12.3125 C 54.359217 12.96844 54.016014 13.667513 53.8125 14.375 C 53.661252 14.901856 53.177425 15.245303 52.625 15.25 L 49.25 15.25 C 49.23968 15.247996 49.22907 15.247996 49.21875 15.25 C 49.216746 15.26032 49.216746 15.27093 49.21875 15.28125 C 49.20843 15.279246 49.19782 15.279246 49.1875 15.28125 C 49.185496 15.29157 49.185496 15.30218 49.1875 15.3125 C 49.174419 15.319859 49.163609 15.330669 49.15625 15.34375 L 49.15625 18.15625 C 49.154246 18.16657 49.154246 18.17718 49.15625 18.1875 C 49.16657 18.189504 49.17718 18.189504 49.1875 18.1875 C 49.185496 18.19782 49.185496 18.20843 49.1875 18.21875 C 49.19782 18.220754 49.20843 18.220754 49.21875 18.21875 C 49.226109 18.231831 49.236919 18.242641 49.25 18.25 L 52.59375 18.25 C 53.143263 18.254673 53.629781 18.628622 53.78125 19.15625 C 53.959485 19.786594 54.266759 20.366705 54.625 21 C 54.892644 21.478897 54.816478 22.074996 54.4375 22.46875 L 52 25.03125 C 51.997996 25.04157 51.997996 25.05218 52 25.0625 C 51.986919 25.069859 51.976109 25.080669 51.96875 25.09375 C 51.976109 25.106831 51.986919 25.117641 52 25.125 C 51.997996 25.13532 51.997996 25.14593 52 25.15625 L 53.9375 27.03125 C 53.94782 27.033254 53.95843 27.033254 53.96875 27.03125 C 53.976109 27.044331 53.986919 27.055141 54 27.0625 C 54.013081 27.055141 54.023891 27.044331 54.03125 27.03125 C 54.04157 27.033254 54.05218 27.033254 54.0625 27.03125 L 56.4375 24.59375 C 56.827147 24.17611 57.469798 24.064614 57.96875 24.34375 C 58.629601 24.71473 59.282579 25.035973 59.96875 25.21875 C 60.496378 25.370219 60.870327 25.856737 60.875 26.40625 L 60.875 29.8125 C 60.872996 29.82282 60.872996 29.83343 60.875 29.84375 C 60.88532 29.845754 60.89593 29.845754 60.90625 29.84375 C 60.904246 29.85407 60.904246 29.86468 60.90625 29.875 C 60.91657 29.877004 60.92718 29.877004 60.9375 29.875 C 60.944859 29.888081 60.955669 29.898891 60.96875 29.90625 L 63.78125 29.90625 C 63.79157 29.908254 63.80218 29.908254 63.8125 29.90625 C 63.814504 29.89593 63.814504 29.88532 63.8125 29.875 C 63.82282 29.877004 63.83343 29.877004 63.84375 29.875 C 63.845754 29.86468 63.845754 29.85407 63.84375 29.84375 C 63.856831 29.836391 63.867641 29.825581 63.875 29.8125 L 63.875 26.34375 C 63.873239 25.805844 64.207315 25.325437 64.71875 25.15625 C 64.727883 25.153508 64.740857 25.159037 64.75 25.15625 C 64.762735 25.152368 64.768497 25.12897 64.78125 25.125 C 65.351215 24.947575 65.925387 24.670105 66.5 24.34375 C 66.978897 24.076106 67.574996 24.152272 67.96875 24.53125 L 70.3125 26.84375 C 70.32282 26.845754 70.33343 26.845754 70.34375 26.84375 C 70.351109 26.856831 70.361919 26.867641 70.375 26.875 C 70.388081 26.867641 70.398891 26.856831 70.40625 26.84375 C 70.41657 26.845754 70.42718 26.845754 70.4375 26.84375 L 72.375 24.90625 C 72.377004 24.89593 72.377004 24.88532 72.375 24.875 C 72.388081 24.867641 72.398891 24.856831 72.40625 24.84375 C 72.398891 24.830669 72.388081 24.819859 72.375 24.8125 C 72.377004 24.80218 72.377004 24.79157 72.375 24.78125 L 70.0625 22.46875 C 69.661055 22.06783 69.583466 21.426796 69.875 20.9375 C 70.186899 20.36507 70.451747 19.823266 70.625 19.21875 C 70.776469 18.691122 71.262987 18.317173 71.8125 18.3125 L 75.125 18.3125 C 75.13532 18.314504 75.14593 18.314504 75.15625 18.3125 C 75.158254 18.30218 75.158254 18.29157 75.15625 18.28125 C 75.16657 18.283254 75.17718 18.283254 75.1875 18.28125 C 75.189504 18.27093 75.189504 18.26032 75.1875 18.25 C 75.200581 18.242641 75.211391 18.231831 75.21875 18.21875 L 75.21875 15.40625 C 75.220754 15.39593 75.220754 15.38532 75.21875 15.375 C 75.20843 15.372996 75.19782 15.372996 75.1875 15.375 C 75.189504 15.36468 75.189504 15.35407 75.1875 15.34375 C 75.17718 15.341746 75.16657 15.341746 75.15625 15.34375 C 75.148891 15.330669 75.138081 15.319859 75.125 15.3125 L 71.84375 15.3125 C 71.294237 15.307827 70.807719 14.933878 70.65625 14.40625 C 70.456844 13.692031 70.147768 13.04139 69.78125 12.40625 C 69.502114 11.907298 69.61361 11.264647 70.03125 10.875 L 72.5625 8.5625 C 72.564504 8.5521797 72.564504 8.5415703 72.5625 8.53125 C 72.575581 8.5238911 72.586391 8.5130814 72.59375 8.5 C 72.586391 8.4869186 72.575581 8.4761089 72.5625 8.46875 C 72.564504 8.4584297 72.564504 8.4478203 72.5625 8.4375 L 70.75 6.4375 C 70.73968 6.4354959 70.72907 6.4354959 70.71875 6.4375 C 70.711391 6.4244186 70.700581 6.4136089 70.6875 6.40625 C 70.674419 6.4136089 70.663609 6.4244186 70.65625 6.4375 C 70.64593 6.4354959 70.63532 6.4354959 70.625 6.4375 L 68.0625 8.75 C 68.05218 8.7479959 68.04157 8.7479959 68.03125 8.75 C 68.018169 8.7573589 68.007359 8.7681686 68 8.78125 C 67.98968 8.7792459 67.97907 8.7792459 67.96875 8.78125 C 67.59036 9.2287602 66.956597 9.4066236 66.4375 9.125 C 65.854096 8.7996663 65.265686 8.5200228 64.65625 8.34375 C 64.129395 8.1925024 63.785947 7.7086749 63.78125 7.15625 L 63.78125 3.625 C 63.783254 3.6146797 63.783254 3.6040703 63.78125 3.59375 C 63.77093 3.5917459 63.76032 3.5917459 63.75 3.59375 C 63.752004 3.5834297 63.752004 3.5728203 63.75 3.5625 C 63.73968 3.5604959 63.72907 3.5604959 63.71875 3.5625 C 63.711391 3.5494186 63.700581 3.5386089 63.6875 3.53125 L 60.875 3.53125 C 60.86468 3.5292459 60.85407 3.5292459 60.84375 3.53125 z M 61.65625 11.71875 C 61.840633 11.70085 62.027583 11.71875 62.21875 11.71875 C 65.277423 11.71875 67.5 14.060208 67.5 16.78125 C 67.499999 19.502293 65.277424 21.843749 62.21875 21.84375 C 59.160075 21.843751 56.9375 19.502293 56.9375 16.78125 C 56.937498 14.230275 58.890504 11.987251 61.65625 11.71875 z "
       style="fill:none;stroke:#ffffff;stroke-width:1.48887335999999992;stroke-linecap:butt;stroke-linejoin:miter;stroke-miterlimit:4;stroke-opacity:0.46153846;stroke-dasharray:none;stroke-dashoffset:0"
       id="path9530"
       d="M 61.125,3.875 L 61.125,7.15625 C 61.119003,7.8614415 60.64401,8.4936488 59.96875,8.6875 C 59.440321,8.8338277 58.910636,9.0768913 58.34375,9.375 C 57.745215,9.688193 56.995567,9.5840745 56.5,9.125 L 54.375,7.09375 L 52.8125,8.71875 L 54.75,10.53125 C 55.284279,11.029718 55.422849,11.824631 55.0625,12.46875 C 55.062969,12.479161 55.062969,12.489589 55.0625,12.5 C 54.68148,13.139553 54.347899,13.802509 54.15625,14.46875 C 53.961879,15.14582 53.319519,15.587845 52.625,15.59375 L 49.5,15.59375 L 49.5,17.90625 L 52.59375,17.90625 C 53.298941,17.912247 53.931149,18.387239 54.125,19.0625 C 54.289989,19.645999 54.582104,20.215485 54.9375,20.84375 C 55.278651,21.454173 55.171718,22.215653 54.6875,22.71875 L 52.4375,25.09375 L 54,26.59375 L 56.1875,24.34375 C 56.685968,23.809471 57.480881,23.670901 58.125,24.03125 C 58.775332,24.396325 59.421142,24.70416 60.0625,24.875 C 60.737761,25.068851 61.212753,25.701059 61.21875,26.40625 L 61.21875,29.5625 L 63.53125,29.5625 L 63.53125,26.34375 C 63.529238,25.729251 63.921279,25.201399 64.46875,24.9375 C 64.464717,24.943454 64.508664,24.861464 64.625,24.8125 C 64.634936,24.806309 64.644018,24.818503 64.65625,24.8125 C 64.677219,24.802209 64.658805,24.790183 64.6875,24.78125 C 65.22258,24.614685 65.782011,24.350293 66.34375,24.03125 C 66.954173,23.690099 67.715653,23.797032 68.21875,24.28125 L 70.375,26.40625 L 71.9375,24.84375 L 69.8125,22.71875 C 69.296006,22.202932 69.188889,21.37705 69.5625,20.75 C 69.869872,20.185879 70.118673,19.692266 70.28125,19.125 C 70.475101,18.449739 71.107309,17.974747 71.8125,17.96875 L 74.875,17.96875 L 74.875,15.65625 L 71.84375,15.65625 C 71.138559,15.650253 70.506351,15.175261 70.3125,14.5 C 70.12339,13.82266 69.826201,13.213178 69.46875,12.59375 C 69.468281,12.583339 69.468281,12.572911 69.46875,12.5625 C 69.108401,11.918381 69.246971,11.123468 69.78125,10.625 C 69.791661,10.624531 69.802089,10.624531 69.8125,10.625 L 72.15625,8.46875 L 70.65625,6.84375 L 68.28125,9 C 68.271508,9.01107 68.26107,9.0215078 68.25,9.03125 C 68.236402,9.0431134 68.203356,9.0535801 68.1875,9.0625 C 68.167771,9.0749928 68.146832,9.0854625 68.125,9.09375 C 68.114589,9.0942192 68.104161,9.0942192 68.09375,9.09375 C 68.084008,9.10482 68.07357,9.1152578 68.0625,9.125 C 68.055764,9.1312415 68.038079,9.1188714 68.03125,9.125 C 68.024421,9.1311286 68.006921,9.1189854 68,9.125 C 67.518527,9.543444 66.876368,9.7603671 66.28125,9.4375 C 65.710654,9.1193088 65.135104,8.8531195 64.5625,8.6875 C 63.88543,8.4931293 63.443405,7.8507698 63.4375,7.15625 L 63.4375,3.875 L 61.125,3.875 z M 61.625,11.375 C 61.853983,11.35277 62.049246,11.375 62.21875,11.375 C 65.454525,11.375 67.84375,13.871238 67.84375,16.78125 C 67.843749,19.691263 65.454526,22.187499 62.21875,22.1875 C 58.982973,22.187501 56.59375,19.691263 56.59375,16.78125 C 56.593748,14.053154 58.689888,11.659943 61.625,11.375 z"
       transform="matrix(0.6069105,-0.2881846,0.2884664,0.6063175,-32.701965,18.018116)" />
    <path
       style="fill:url(#radialGradient9137);fill-opacity:1;fill-rule:evenodd;stroke:#204a87;stroke-width:0.99999988;stroke-linecap:round;stroke-linejoin:round;stroke-miterlimit:4;stroke-opacity:1;stroke-dashoffset:0"
       d="M 6.6978111,12.499538 L 14.647816,12.541655 C 14.647816,12.541655 15.044338,12.555859 15.436234,12.837335 C 15.837923,13.147626 15.861368,13.842508 15.62357,14.653476 L 31.499998,14.65961 L 26.936498,30.585248 L 1.5087121,30.585248 L 6.6978111,12.499538 z"
       id="rect5425"
       sodipodi:nodetypes="cccccccc" />
    <path
       style="fill:none;stroke:#ffffff;stroke-width:0.99999988;stroke-linecap:round;stroke-linejoin:miter;stroke-miterlimit:4;stroke-opacity:0.39108911;stroke-dashoffset:0"
       d="M 7.4826496,13.538727 L 2.8619731,29.58219 L 26.150023,29.564866 L 30.125537,15.666155 L 14.06643,15.678943 C 14.318236,15.106156 14.861354,13.947378 14.734607,13.602341 C 14.159413,13.481729 12.461954,13.52298 12.461954,13.52298 L 7.4826496,13.538727 z"
       id="path7360"
       sodipodi:nodetypes="cccccccc" />
    <g
       style="display:inline"
       inkscape:label="Base"
       id="g2721"
       transform="translate(-5.156883,-98.255354)" />
    <path
       id="rect4784"
       d="M -122.59391,-10.646865 L -74.593908,-10.646865 L -74.593908,37.353135 L -122.59391,37.353135 L -122.59391,-10.646865 z"
       style="fill:none;stroke:none" />
    <g
       id="layer2"
       inkscape:label="new"
       transform="translate(-123.59391,-9.646865)" />
    <g
       transform="translate(14.066827,-48.987582)"
       id="g8811"
       style="display:inline" />
    <path
       d="M 16.094545,13.940827 C 15.602463,13.970347 15.130754,14.062798 14.660338,14.227667 L 18.078531,17.645838 L 16.978973,19.821037 L 14.803759,20.896686 L 11.385568,17.502418 C 10.715863,19.388707 11.143656,21.5631 12.652449,23.071885 C 14.161244,24.580671 16.335648,24.984557 18.221952,24.314857 L 22.335725,28.582651 L 28.574524,28.582651 C 28.653663,28.582651 28.736536,28.56619 28.813558,28.558748 L 21.47282,21.064009 C 22.132301,19.182357 21.709303,16.997898 20.205938,15.494541 C 19.078413,14.367025 17.570792,13.85227 16.094545,13.940827 z"
       id="path6270"
       style="opacity:0.2;fill:#000000;fill-opacity:1;fill-rule:nonzero;stroke:#000000;stroke-width:1.00000036;stroke-linecap:round;stroke-linejoin:round;stroke-miterlimit:4;stroke-opacity:1;stroke-dasharray:none;stroke-dashoffset:1.4;marker:none;marker-start:none;marker-mid:none;marker-end:none;visibility:visible;display:inline;overflow:visible"
       sodipodi:nodetypes="ccccccscccccsc" />
    <g
       transform="matrix(0.7649102,0,0,0.7649054,-52.940525,-6.672606)"
       id="g3199">
      <path
         d="M 32.5,24.1875 C 30.13715,25.312159 28.5,27.710447 28.5,30.5 C 28.5,33.289555 30.137147,35.687838 32.5,36.8125 L 32.5,55.350096 L 38.53125,55.350096 L 38.53125,36.8125 C 40.880361,35.682677 42.5,33.279516 42.5,30.5 C 42.5,27.720486 40.880357,25.31732 38.53125,24.1875 L 38.53125,30.5 L 35.515625,31.5 L 32.5,30.5 L 32.5,24.1875 z"
         transform="matrix(0.707107,-0.707107,0.707107,0.707107,44.01958,36.46818)"
         id="path3193"
         style="opacity:1;fill:url(#linearGradient8836);fill-opacity:1;fill-rule:nonzero;stroke:url(#linearGradient8838);stroke-width:1.30734706;stroke-linecap:round;stroke-linejoin:round;stroke-miterlimit:4;stroke-opacity:1;stroke-dasharray:none;stroke-dashoffset:1.4;marker:none;marker-start:none;marker-mid:none;marker-end:none;visibility:visible;display:inline;overflow:visible" />
      <path
         d="M 31.176678,26.819809 C 30.589509,27.274553 29.802896,29.11798 29.802896,30.418291 C 29.802896,32.687333 31.145959,34.7323 33.063109,35.644818 C 33.527077,35.868528 33.853184,31.017279 33.792682,36.761432 C 33.807005,41.990799 33.84375,55.40625 33.84375,55.40625 L 37.1875,55.40625 L 37.228354,36.853354 C 37.222929,36.338298 37.493959,35.837887 37.957927,35.614177 C 39.859678,34.699515 41.094967,33.048895 41.207319,30.38765 C 41.261868,29.095548 40.521863,27.573255 39.854574,26.881091 L 39.875,30.5 C 39.870165,31.071109 39.480748,31.573727 38.9375,31.75 L 35.90625,32.75 C 35.634826,32.839843 35.365174,32.839843 35.09375,32.75 L 32.09375,31.75 C 31.550502,31.573727 31.181512,31.030254 31.176677,30.459145 L 31.176678,26.819809 z"
         transform="matrix(0.707107,-0.707107,0.707107,0.707107,44.01958,36.46818)"
         id="path8105"
         style="fill:none;stroke:url(#linearGradient8840);stroke-width:1.30734706;stroke-linecap:round;stroke-linejoin:miter;stroke-miterlimit:4;stroke-opacity:1;stroke-dashoffset:1.4;marker:none;marker-start:none;marker-mid:none;marker-end:none;visibility:visible;display:inline;overflow:visible" />
      <rect
         width="2.0000091"
         height="15.000015"
         rx="1.307353"
         ry="1.307353"
         x="34.500008"
         y="37.499985"
         transform="matrix(0.707107,-0.707107,0.707107,0.707107,44.01958,36.46818)"
         id="rect3197"
         style="opacity:0.4;fill:none;stroke:url(#linearGradient8842);stroke-width:1.30734682;stroke-linecap:round;stroke-linejoin:miter;stroke-miterlimit:4;stroke-opacity:1;stroke-dasharray:none;stroke-dashoffset:1.4;marker:none;marker-start:none;marker-mid:none;marker-end:none;visibility:visible;display:inline;overflow:visible" />
    </g>
  </g>
</svg>
